# xmcd
# 
# Track frame offsets:
#     150
#     15169
#     33361
#     52343
#     72078
#     88691
#     101634
#     112205
#     131157
#     152625
#     179326
#     204070
#     221152
#     228704
#     236692
#     253502
#     277657
#     290116
#     302786
#     322187
#     336882
# 
# Disc length: 4756
# 
# Revision: 1
# Processed by: cddbd v1.5.2PL0 Copyright (c) Steve Scherf et al.
# Submitted via: fre:ac v1.0.17
# 
DISCID=3b129215
DTITLE=Various Artist - イマージュ12
DYEAR=2012
DGENRE=New Age
TTITLE0=渡辺 俊幸 - メインテーマ　明日へ（ＮＨＫ連続テレビ小説「おひさま」メインテーマ）
TTITLE1=イル・ディーヴォ - ユー・レイズ・ミー・アップ
TTITLE2=松下 奈緒 - Ｔｏｇｅｔｈｅｒ（日本テレビ系「ズームイン！！ＳＵＰＥＲ」「ズームイン！！サタデー」秋のお天気テーマ（２００７年））
TTITLE3=ウェイウェイ・ウー - ＪＩＮ－仁－　Ｍａｉｎ　Ｔｉｔｌｅ（トリオ・ヴァージョン）
TTITLE4=手嶌 葵 - 瑠璃色の地球（日本生命「みらいサポート」ＣＭソング）
TTITLE5=吉俣 良 - 江～姫たちの戦国～（メインテーマ｜ＮＨＫ大河ドラマ「江～姫たちの戦国～」テーマ曲）
TTITLE6=ゴンチチ - １９６７
TTITLE7=2CELLOS - スムーズ・クリミナル（日本テレビ系「ザ！世界仰天ニュース」エンディングテーマ）
TTITLE8=葉加瀬 太郎 - 情熱大陸２００７（ＭＢＳ／ＴＢＳ「情熱大陸」テーマ曲）
TTITLE9=NAOTO - Ｐｒｉｓｍ（日本テレビ系「ｎｅｗｓ　ｅｖｅｒｙ．」お天気コーナーテーマソング）
TTITLE10=羽毛田 丈史 - 學・旅立ち（ＷＯＷＷＯＷ開局２０周年記念番組ドラマＷスペシャル倉本聰「學」より）
TTITLE11=加古 隆 クァルテット - 黄昏のワルツ（ＮＨＫ「にんげんドキュメント」テーマ曲）
TTITLE12=日野 皓正 - 故郷（Ｐａｎａｓｏｎｉｃ企業ＣＭ曲）
TTITLE13=Manami Morita - Ｉ　ａｍ（テレビ朝日系「報道ステーション」オープニング・テーマ曲）
TTITLE14=栗コーダーカルテット - 小組曲「ピタゴラスイッチ」（ＮＨＫ「ピタゴラスイッチ」ＢＧＭより）
TTITLE15=松谷 卓 - Ｍｕｓｉｃ　ｆｏｒ　Ｋａｒｔｅ（Ａｌｂｕｍ　Ｖｅｒｓｉｏｎ｜映画「神様のカルテ」オリジナル・サウンドトラックより）
TTITLE16=スーザン・ボイル - 蛍の光
TTITLE17=平井 真美子 - 白夜（映画「白夜行」より）
TTITLE18=加古 隆 クァルテット - パリは燃えているか（ＮＨＫスペシャル「映像の世紀」テーマ曲）
TTITLE19=小松 亮太 - 記憶の回廊（ＢＳ日テレ「手わざ恋々和美巡り～檀れい　名匠の里紀行～」挿入曲）
TTITLE20=宮本 笑里 - Ｍａｒｉｎａ　Ｇｒａｎｄｅ（「レンブラント　光の探求／闇の誘惑」展覧会テーマ曲）
EXTD=YEAR: 2012
EXTT0=
EXTT1=
EXTT2=
EXTT3=
EXTT4=
EXTT5=
EXTT6=
EXTT7=
EXTT8=
EXTT9=
EXTT10=
EXTT11=
EXTT12=
EXTT13=
EXTT14=
EXTT15=
EXTT16=
EXTT17=
EXTT18=
EXTT19=
EXTT20=
PLAYORDER=
